<mxfile host="Electron" modified="2023-05-30T09:08:05.301Z" agent="Mozilla/5.0 (Windows NT 10.0; Win64; x64) AppleWebKit/537.36 (KHTML, like Gecko) draw.io/21.2.8 Chrome/112.0.5615.165 Electron/24.2.0 Safari/537.36" etag="HXMny3DUOOC0EsjHorOi" version="21.2.8" type="device">
  <diagram name="第 1 页" id="SEkag_I0rSbZ3cbGkM_X">
    <mxGraphModel dx="1421" dy="832" grid="1" gridSize="10" guides="1" tooltips="1" connect="1" arrows="1" fold="1" page="1" pageScale="1" pageWidth="1169" pageHeight="827" math="0" shadow="0">
      <root>
        <mxCell id="0" />
        <mxCell id="1" parent="0" />
        <mxCell id="xXlyJc3UYYcCv6MWLJ6c-1" value="" style="line;strokeWidth=2;html=1;" vertex="1" parent="1">
          <mxGeometry x="117" y="115" width="38" height="10" as="geometry" />
        </mxCell>
        <mxCell id="xXlyJc3UYYcCv6MWLJ6c-2" value="" style="line;strokeWidth=2;html=1;" vertex="1" parent="1">
          <mxGeometry x="79" y="65" width="109" height="10" as="geometry" />
        </mxCell>
        <mxCell id="xXlyJc3UYYcCv6MWLJ6c-3" value="" style="line;strokeWidth=2;html=1;" vertex="1" parent="1">
          <mxGeometry x="79" y="99" width="17" height="10" as="geometry" />
        </mxCell>
        <mxCell id="xXlyJc3UYYcCv6MWLJ6c-4" value="" style="line;strokeWidth=2;direction=south;html=1;" vertex="1" parent="1">
          <mxGeometry x="75" y="70" width="10" height="34" as="geometry" />
        </mxCell>
        <mxCell id="xXlyJc3UYYcCv6MWLJ6c-5" value="" style="line;strokeWidth=2;html=1;" vertex="1" parent="1">
          <mxGeometry x="56" y="121" width="13" height="10" as="geometry" />
        </mxCell>
        <mxCell id="xXlyJc3UYYcCv6MWLJ6c-6" value="" style="line;strokeWidth=2;html=1;" vertex="1" parent="1">
          <mxGeometry x="58" y="138" width="11" height="10" as="geometry" />
        </mxCell>
        <mxCell id="xXlyJc3UYYcCv6MWLJ6c-7" value="" style="line;strokeWidth=2;direction=south;html=1;" vertex="1" parent="1">
          <mxGeometry x="54" y="142" width="10" height="96" as="geometry" />
        </mxCell>
        <mxCell id="xXlyJc3UYYcCv6MWLJ6c-8" value="" style="line;strokeWidth=2;html=1;" vertex="1" parent="1">
          <mxGeometry x="647" y="143" width="35" height="10" as="geometry" />
        </mxCell>
        <mxCell id="xXlyJc3UYYcCv6MWLJ6c-9" value="" style="line;strokeWidth=2;html=1;" vertex="1" parent="1">
          <mxGeometry x="169" y="115" width="36" height="10" as="geometry" />
        </mxCell>
        <mxCell id="xXlyJc3UYYcCv6MWLJ6c-10" value="" style="line;strokeWidth=2;html=1;" vertex="1" parent="1">
          <mxGeometry x="254" y="115" width="41" height="10" as="geometry" />
        </mxCell>
        <mxCell id="xXlyJc3UYYcCv6MWLJ6c-11" value="" style="line;strokeWidth=2;direction=south;html=1;" vertex="1" parent="1">
          <mxGeometry x="290" y="119" width="10" height="149" as="geometry" />
        </mxCell>
        <mxCell id="xXlyJc3UYYcCv6MWLJ6c-12" value="" style="line;strokeWidth=2;html=1;" vertex="1" parent="1">
          <mxGeometry x="295" y="153" width="24" height="10" as="geometry" />
        </mxCell>
        <mxCell id="xXlyJc3UYYcCv6MWLJ6c-13" value="" style="line;strokeWidth=2;html=1;" vertex="1" parent="1">
          <mxGeometry x="295" y="134" width="24" height="10" as="geometry" />
        </mxCell>
        <mxCell id="xXlyJc3UYYcCv6MWLJ6c-14" value="" style="line;strokeWidth=2;html=1;" vertex="1" parent="1">
          <mxGeometry x="295" y="115" width="24" height="10" as="geometry" />
        </mxCell>
        <mxCell id="xXlyJc3UYYcCv6MWLJ6c-15" value="" style="line;strokeWidth=2;html=1;" vertex="1" parent="1">
          <mxGeometry x="302" y="94" width="17" height="10" as="geometry" />
        </mxCell>
        <mxCell id="xXlyJc3UYYcCv6MWLJ6c-16" value="" style="line;strokeWidth=2;html=1;" vertex="1" parent="1">
          <mxGeometry x="302" y="65" width="380" height="10" as="geometry" />
        </mxCell>
        <mxCell id="xXlyJc3UYYcCv6MWLJ6c-17" value="" style="line;strokeWidth=2;direction=south;html=1;" vertex="1" parent="1">
          <mxGeometry x="298" y="71" width="10" height="28" as="geometry" />
        </mxCell>
        <mxCell id="xXlyJc3UYYcCv6MWLJ6c-18" value="" style="line;strokeWidth=2;direction=south;html=1;" vertex="1" parent="1">
          <mxGeometry x="676" y="70" width="10" height="78" as="geometry" />
        </mxCell>
        <mxCell id="xXlyJc3UYYcCv6MWLJ6c-19" value="" style="line;strokeWidth=2;html=1;" vertex="1" parent="1">
          <mxGeometry x="296" y="196" width="14" height="10" as="geometry" />
        </mxCell>
        <mxCell id="xXlyJc3UYYcCv6MWLJ6c-20" value="" style="line;strokeWidth=2;direction=south;html=1;" vertex="1" parent="1">
          <mxGeometry x="414" y="138" width="10" height="101" as="geometry" />
        </mxCell>
        <mxCell id="xXlyJc3UYYcCv6MWLJ6c-21" value="" style="line;strokeWidth=2;html=1;" vertex="1" parent="1">
          <mxGeometry x="58" y="233" width="361" height="10" as="geometry" />
        </mxCell>
        <mxCell id="xXlyJc3UYYcCv6MWLJ6c-22" value="" style="line;strokeWidth=2;html=1;" vertex="1" parent="1">
          <mxGeometry x="343" y="191" width="76" height="10" as="geometry" />
        </mxCell>
        <mxCell id="xXlyJc3UYYcCv6MWLJ6c-23" value="" style="line;strokeWidth=2;html=1;" vertex="1" parent="1">
          <mxGeometry x="380" y="94" width="101" height="10" as="geometry" />
        </mxCell>
        <mxCell id="xXlyJc3UYYcCv6MWLJ6c-24" value="" style="line;strokeWidth=2;html=1;strokeColor=#000000;" vertex="1" parent="1">
          <mxGeometry x="440" y="124" width="41" height="10" as="geometry" />
        </mxCell>
        <mxCell id="xXlyJc3UYYcCv6MWLJ6c-25" value="" style="line;strokeWidth=2;html=1;strokeColor=#000000;" vertex="1" parent="1">
          <mxGeometry x="380" y="153" width="173" height="10" as="geometry" />
        </mxCell>
        <mxCell id="xXlyJc3UYYcCv6MWLJ6c-26" value="" style="line;strokeWidth=2;html=1;strokeColor=#000000;" vertex="1" parent="1">
          <mxGeometry x="401" y="114" width="29" height="10" as="geometry" />
        </mxCell>
        <mxCell id="xXlyJc3UYYcCv6MWLJ6c-27" value="" style="line;strokeWidth=2;direction=south;html=1;" vertex="1" parent="1">
          <mxGeometry x="397" y="119" width="10" height="39" as="geometry" />
        </mxCell>
        <mxCell id="xXlyJc3UYYcCv6MWLJ6c-28" value="" style="line;strokeWidth=2;html=1;" vertex="1" parent="1">
          <mxGeometry x="418" y="133.5" width="12" height="10" as="geometry" />
        </mxCell>
        <mxCell id="xXlyJc3UYYcCv6MWLJ6c-29" value="" style="line;strokeWidth=2;html=1;strokeColor=#000000;" vertex="1" parent="1">
          <mxGeometry x="506" y="107" width="119" height="10" as="geometry" />
        </mxCell>
        <mxCell id="xXlyJc3UYYcCv6MWLJ6c-30" value="" style="line;strokeWidth=2;html=1;" vertex="1" parent="1">
          <mxGeometry x="624" y="134" width="11" height="10" as="geometry" />
        </mxCell>
        <mxCell id="xXlyJc3UYYcCv6MWLJ6c-31" value="" style="line;strokeWidth=2;direction=south;html=1;" vertex="1" parent="1">
          <mxGeometry x="620" y="111" width="10" height="28.5" as="geometry" />
        </mxCell>
        <mxCell id="xXlyJc3UYYcCv6MWLJ6c-32" value="" style="line;strokeWidth=2;html=1;" vertex="1" parent="1">
          <mxGeometry x="542" y="134.5" width="11" height="10" as="geometry" />
        </mxCell>
        <mxCell id="xXlyJc3UYYcCv6MWLJ6c-33" value="" style="line;strokeWidth=2;direction=south;html=1;" vertex="1" parent="1">
          <mxGeometry x="538" y="111.5" width="10" height="28.5" as="geometry" />
        </mxCell>
        <mxCell id="xXlyJc3UYYcCv6MWLJ6c-34" value="" style="line;strokeWidth=2;html=1;strokeColor=#000000;" vertex="1" parent="1">
          <mxGeometry x="594" y="153" width="41" height="10" as="geometry" />
        </mxCell>
        <mxCell id="xXlyJc3UYYcCv6MWLJ6c-35" value="" style="line;strokeWidth=2;direction=south;html=1;" vertex="1" parent="1">
          <mxGeometry x="182" y="70" width="10" height="50" as="geometry" />
        </mxCell>
        <mxCell id="xXlyJc3UYYcCv6MWLJ6c-36" value="" style="line;strokeWidth=2;html=1;" vertex="1" parent="1">
          <mxGeometry x="81" y="129" width="15" height="10" as="geometry" />
        </mxCell>
        <mxCell id="xXlyJc3UYYcCv6MWLJ6c-37" style="vsdxID=68;edgeStyle=none;startArrow=none;endArrow=none;startSize=5;endSize=5;spacingTop=0;spacingBottom=0;spacingLeft=0;spacingRight=0;verticalAlign=middle;html=1;labelBackgroundColor=none;rounded=0;" edge="1" parent="1">
          <mxGeometry relative="1" as="geometry">
            <Array as="points" />
            <mxPoint x="493" y="135" as="sourcePoint" />
            <mxPoint x="493" y="275" as="targetPoint" />
          </mxGeometry>
        </mxCell>
        <mxCell id="xXlyJc3UYYcCv6MWLJ6c-38" style="vsdxID=70;edgeStyle=none;startArrow=none;endArrow=none;startSize=5;endSize=5;strokeColor=#000000;spacingTop=0;spacingBottom=0;spacingLeft=0;spacingRight=0;verticalAlign=middle;html=1;labelBackgroundColor=none;rounded=0;" edge="1" parent="1">
          <mxGeometry relative="1" as="geometry">
            <Array as="points" />
            <mxPoint x="435" y="145" as="sourcePoint" />
            <mxPoint x="435" y="268" as="targetPoint" />
          </mxGeometry>
        </mxCell>
        <mxCell id="xXlyJc3UYYcCv6MWLJ6c-39" style="vsdxID=31;fillColor=#ffffff;gradientColor=#ffffff;shape=stencil(rY9LDoAgDERP0z3SI6DegwQUogIB/N1eSBd+1u5m2tdmBlAkI4MGzlKOftK7VdkAtsC5dUZHm4sC7ADF4KMeo1+dIh9kJata/FY/HHTH6gVnJ7mGke8Jna37A32BRdxZqMZz981dRtQZuws=);strokeColor=#000000;flipV=1;points=[];labelBackgroundColor=#ffffff;rounded=0;html=1;whiteSpace=wrap;" vertex="1" parent="1">
          <mxGeometry x="353" y="170" width="1" height="97" as="geometry" />
        </mxCell>
        <mxCell id="xXlyJc3UYYcCv6MWLJ6c-40" style="vsdxID=42;edgeStyle=none;startArrow=none;endArrow=none;startSize=5;endSize=5;strokeColor=#000000;spacingTop=0;spacingBottom=0;spacingLeft=0;spacingRight=0;verticalAlign=middle;html=1;labelBackgroundColor=none;rounded=0;" edge="1" parent="1">
          <mxGeometry relative="1" as="geometry">
            <Array as="points" />
            <mxPoint x="575" y="288" as="sourcePoint" />
            <mxPoint x="575" y="199" as="targetPoint" />
          </mxGeometry>
        </mxCell>
        <mxCell id="xXlyJc3UYYcCv6MWLJ6c-41" style="vsdxID=69;edgeStyle=none;startArrow=none;endArrow=none;startSize=5;endSize=5;strokeColor=#000000;spacingTop=0;spacingBottom=0;spacingLeft=0;spacingRight=0;verticalAlign=middle;html=1;labelBackgroundColor=none;rounded=0;" edge="1" parent="1">
          <mxGeometry relative="1" as="geometry">
            <Array as="points" />
            <mxPoint x="326" y="208" as="sourcePoint" />
            <mxPoint x="326" y="268" as="targetPoint" />
          </mxGeometry>
        </mxCell>
        <mxCell id="xXlyJc3UYYcCv6MWLJ6c-42" value="&lt;div style=&quot;font-size: 1px&quot;&gt;&lt;/div&gt;" style="text;vsdxID=69;edgeStyle=none;startArrow=none;endArrow=none;startSize=5;endSize=5;strokeColor=none;spacingTop=0;spacingBottom=0;spacingLeft=0;spacingRight=0;verticalAlign=middle;html=1;labelBackgroundColor=none;rounded=0;align=center;fillColor=none;gradientColor=none;whiteSpace=wrap;;html=1;;rotation=270" vertex="1" parent="xXlyJc3UYYcCv6MWLJ6c-41">
          <mxGeometry width="60.26" height="1" relative="1" as="geometry">
            <mxPoint x="-30.13" y="-0.5" as="offset" />
          </mxGeometry>
        </mxCell>
        <mxCell id="xXlyJc3UYYcCv6MWLJ6c-43" style="vsdxID=101;edgeStyle=none;startArrow=none;endArrow=none;startSize=5;endSize=5;strokeColor=#000000;spacingTop=0;spacingBottom=0;spacingLeft=0;spacingRight=0;verticalAlign=middle;html=1;labelBackgroundColor=none;rounded=0;" edge="1" parent="1">
          <mxGeometry relative="1" as="geometry">
            <mxPoint x="-1" as="offset" />
            <Array as="points" />
            <mxPoint x="506" y="127" as="sourcePoint" />
            <mxPoint x="520" y="127" as="targetPoint" />
          </mxGeometry>
        </mxCell>
        <mxCell id="xXlyJc3UYYcCv6MWLJ6c-44" value="&lt;div style=&quot;font-size: 1px&quot;&gt;&lt;p style=&quot;align:left;margin-left:0;margin-right:0;margin-top:0px;margin-bottom:0px;text-indent:0;valign:middle;direction:ltr;&quot;&gt;&lt;font style=&quot;font-size:8.47px;font-family:Segoe UI;color:#000000;direction:ltr;letter-spacing:0px;line-height:120%;opacity:1&quot;&gt;&lt;sub&gt;24~20&lt;br/&gt;&lt;/sub&gt;&lt;/font&gt;&lt;/p&gt;&lt;/div&gt;" style="verticalAlign=middle;align=left;vsdxID=102;fillColor=none;gradientColor=none;strokeColor=none;points=[];labelBackgroundColor=none;rounded=0;html=1;whiteSpace=wrap;" vertex="1" parent="1">
          <mxGeometry x="296" y="146" width="26" height="11" as="geometry" />
        </mxCell>
        <mxCell id="xXlyJc3UYYcCv6MWLJ6c-45" style="vsdxID=104;edgeStyle=none;startArrow=none;endArrow=none;startSize=5;endSize=5;strokeColor=#000000;spacingTop=0;spacingBottom=0;spacingLeft=0;spacingRight=0;verticalAlign=middle;html=1;labelBackgroundColor=none;rounded=0;" edge="1" parent="1">
          <mxGeometry relative="1" as="geometry">
            <mxPoint as="offset" />
            <Array as="points" />
            <mxPoint x="423" y="131" as="sourcePoint" />
            <mxPoint x="423" y="131" as="targetPoint" />
          </mxGeometry>
        </mxCell>
        <mxCell id="xXlyJc3UYYcCv6MWLJ6c-46" value="&lt;div style=&quot;font-size: 1px&quot;&gt;&lt;p style=&quot;align:left;margin-left:0;margin-right:0;margin-top:0px;margin-bottom:0px;text-indent:0;valign:middle;direction:ltr;&quot;&gt;&lt;font style=&quot;font-size:8.47px;font-family:Segoe UI;color:#000000;direction:ltr;letter-spacing:0px;line-height:120%;opacity:1&quot;&gt;&lt;sub&gt;11~7&lt;br/&gt;&lt;/sub&gt;&lt;/font&gt;&lt;/p&gt;&lt;/div&gt;" style="verticalAlign=middle;align=left;vsdxID=105;fillColor=none;gradientColor=none;strokeColor=none;points=[];labelBackgroundColor=none;rounded=0;html=1;whiteSpace=wrap;" vertex="1" parent="1">
          <mxGeometry x="296" y="106" width="26" height="13" as="geometry" />
        </mxCell>
        <mxCell id="xXlyJc3UYYcCv6MWLJ6c-47" style="vsdxID=106;edgeStyle=none;startArrow=none;endArrow=none;startSize=5;endSize=5;strokeColor=#000000;spacingTop=0;spacingBottom=0;spacingLeft=0;spacingRight=0;verticalAlign=middle;html=1;labelBackgroundColor=none;rounded=0;" edge="1" parent="1">
          <mxGeometry relative="1" as="geometry">
            <Array as="points" />
            <mxPoint x="642" y="164" as="sourcePoint" />
            <mxPoint x="642" y="300" as="targetPoint" />
          </mxGeometry>
        </mxCell>
        <mxCell id="xXlyJc3UYYcCv6MWLJ6c-48" value="&lt;div style=&quot;font-size: 1px&quot;&gt;&lt;font style=&quot;font-size:8.47px;font-family:Segoe UI;color:#000000;direction:ltr;letter-spacing:0px;line-height:120%;opacity:1&quot;&gt;4&lt;br/&gt;&lt;/font&gt;&lt;/div&gt;" style="verticalAlign=middle;align=center;vsdxID=111;fillColor=none;gradientColor=none;strokeColor=none;points=[];labelBackgroundColor=none;rounded=0;html=1;whiteSpace=wrap;" vertex="1" parent="1">
          <mxGeometry x="41" y="118" width="20" height="16" as="geometry" />
        </mxCell>
        <mxCell id="xXlyJc3UYYcCv6MWLJ6c-49" style="vsdxID=112;edgeStyle=none;startArrow=none;endArrow=none;startSize=5;endSize=5;strokeColor=#000000;spacingTop=0;spacingBottom=0;spacingLeft=0;spacingRight=0;verticalAlign=middle;html=1;labelBackgroundColor=none;rounded=0;" edge="1" parent="1">
          <mxGeometry relative="1" as="geometry">
            <Array as="points" />
            <mxPoint x="77" y="147" as="sourcePoint" />
            <mxPoint x="77" y="273" as="targetPoint" />
          </mxGeometry>
        </mxCell>
        <mxCell id="xXlyJc3UYYcCv6MWLJ6c-50" style="vsdxID=147;fillColor=none;gradientColor=none;strokeColor=none;points=[];labelBackgroundColor=none;rounded=0;html=1;whiteSpace=wrap;" vertex="1" parent="1">
          <mxGeometry x="63" y="107" width="33" height="54" as="geometry" />
        </mxCell>
        <mxCell id="xXlyJc3UYYcCv6MWLJ6c-51" style="vsdxID=148;fillColor=#ffffff;gradientColor=#ffffff;shape=stencil(UzV2Ls5ILEhVNTIoLinKz04tz0wpyVA1dlE1MsrMy0gtyiwBslSNXVWNndPyi1LTi/JL81Ig/IJEkEoQKze/DGRCBUSfAUiHkUElMs8NojAnMw+nQkMDPEphkjDFFuZ6psSrNjTCpxqPe4EMhC/TMnNyIIGELI8eKkAhSIgauwIA);strokeColor=#000000;points=[];labelBackgroundColor=none;rounded=0;html=1;whiteSpace=wrap;" vertex="1" parent="xXlyJc3UYYcCv6MWLJ6c-50">
          <mxGeometry x="6" y="9" width="12" height="36" as="geometry" />
        </mxCell>
        <mxCell id="xXlyJc3UYYcCv6MWLJ6c-52" value="&lt;div style=&quot;font-size: 1px&quot;&gt;&lt;p style=&quot;align:left;margin-left:0;margin-right:0;margin-top:0px;margin-bottom:0px;text-indent:0;valign:middle;direction:ltr;&quot;&gt;&lt;font style=&quot;font-size:8.47px;font-family:Segoe UI;color:#000000;direction:ltr;letter-spacing:0px;line-height:120%;opacity:1&quot;&gt;0&lt;br/&gt;&lt;/font&gt;&lt;/p&gt;&lt;/div&gt;" style="verticalAlign=middle;align=left;vsdxID=149;fillColor=none;gradientColor=none;strokeColor=none;points=[];labelBackgroundColor=none;rounded=0;html=1;whiteSpace=wrap;" vertex="1" parent="xXlyJc3UYYcCv6MWLJ6c-50">
          <mxGeometry x="5" y="14" width="8" height="8" as="geometry" />
        </mxCell>
        <mxCell id="xXlyJc3UYYcCv6MWLJ6c-53" value="&lt;div style=&quot;font-size: 1px&quot;&gt;&lt;p style=&quot;align:left;margin-left:0;margin-right:0;margin-top:0px;margin-bottom:0px;text-indent:0;valign:middle;direction:ltr;&quot;&gt;&lt;font style=&quot;font-size:8.47px;font-family:Segoe UI;color:#000000;direction:ltr;letter-spacing:0px;line-height:120%;opacity:1&quot;&gt;1&lt;br/&gt;&lt;/font&gt;&lt;/p&gt;&lt;/div&gt;" style="verticalAlign=middle;align=left;vsdxID=150;fillColor=none;gradientColor=none;strokeColor=none;points=[];labelBackgroundColor=none;rounded=0;html=1;whiteSpace=wrap;" vertex="1" parent="xXlyJc3UYYcCv6MWLJ6c-50">
          <mxGeometry x="5" y="30" width="8" height="9" as="geometry" />
        </mxCell>
        <mxCell id="xXlyJc3UYYcCv6MWLJ6c-54" style="vsdxID=227;fillColor=none;gradientColor=none;strokeColor=none;points=[];labelBackgroundColor=none;rounded=0;html=1;whiteSpace=wrap;" vertex="1" parent="1">
          <mxGeometry x="629" y="121" width="28" height="54" as="geometry" />
        </mxCell>
        <mxCell id="xXlyJc3UYYcCv6MWLJ6c-55" style="vsdxID=228;fillColor=#ffffff;gradientColor=#ffffff;shape=stencil(UzV2Ls5ILEhVNTIoLinKz04tz0wpyVA1dlE1MsrMy0gtyiwBslSNXVWNndPyi1LTi/JL81Ig/IJEkEoQKze/DGRCBUSfAUiHkUElMs8NojAnMw+nQkMDPEphkjDFFuZ6psSrNjTCpxqPe4EMhC/TMnNyIIGELI8eKkAhSIgauwIA);strokeColor=#000000;points=[];labelBackgroundColor=none;rounded=0;html=1;whiteSpace=wrap;" vertex="1" parent="xXlyJc3UYYcCv6MWLJ6c-54">
          <mxGeometry x="6" y="9" width="12" height="36" as="geometry" />
        </mxCell>
        <mxCell id="xXlyJc3UYYcCv6MWLJ6c-56" value="&lt;div style=&quot;font-size: 1px&quot;&gt;&lt;p style=&quot;align:left;margin-left:0;margin-right:0;margin-top:0px;margin-bottom:0px;text-indent:0;valign:middle;direction:ltr;&quot;&gt;&lt;font style=&quot;font-size:8.47px;font-family:Segoe UI;color:#000000;direction:ltr;letter-spacing:0px;line-height:120%;opacity:1&quot;&gt;0&lt;br/&gt;&lt;/font&gt;&lt;/p&gt;&lt;/div&gt;" style="verticalAlign=middle;align=left;vsdxID=229;fillColor=none;gradientColor=none;strokeColor=none;points=[];labelBackgroundColor=none;rounded=0;html=1;whiteSpace=wrap;" vertex="1" parent="xXlyJc3UYYcCv6MWLJ6c-54">
          <mxGeometry x="6" y="12" width="7" height="10" as="geometry" />
        </mxCell>
        <mxCell id="xXlyJc3UYYcCv6MWLJ6c-57" value="&lt;div style=&quot;font-size: 1px&quot;&gt;&lt;p style=&quot;align:left;margin-left:0;margin-right:0;margin-top:0px;margin-bottom:0px;text-indent:0;valign:middle;direction:ltr;&quot;&gt;&lt;font style=&quot;font-size:8.47px;font-family:Segoe UI;color:#000000;direction:ltr;letter-spacing:0px;line-height:120%;opacity:1&quot;&gt;1&lt;br/&gt;&lt;/font&gt;&lt;/p&gt;&lt;/div&gt;" style="verticalAlign=middle;align=left;vsdxID=230;fillColor=none;gradientColor=none;strokeColor=none;points=[];labelBackgroundColor=none;rounded=0;html=1;whiteSpace=wrap;" vertex="1" parent="xXlyJc3UYYcCv6MWLJ6c-54">
          <mxGeometry x="5" y="30" width="8" height="10" as="geometry" />
        </mxCell>
        <mxCell id="xXlyJc3UYYcCv6MWLJ6c-58" style="vsdxID=231;fillColor=none;gradientColor=none;strokeColor=none;points=[];labelBackgroundColor=none;rounded=0;html=1;whiteSpace=wrap;" vertex="1" parent="1">
          <mxGeometry x="423" y="106" width="28" height="45" as="geometry" />
        </mxCell>
        <mxCell id="xXlyJc3UYYcCv6MWLJ6c-59" style="vsdxID=232;fillColor=#ffffff;gradientColor=#ffffff;shape=stencil(UzV2Ls5ILEhVNTIoLinKz04tz0wpyVA1dlE1MsrMy0gtyiwBslSNXVWNndPyi1LTi/JL81Ig/IJEkEoQKze/DGRCBUSfAUiHkUElMs8NojAnMw+nQkMDPEphkjDFFuZ6psSrNjTCpxqPe4EMhC/TMnNyIIGELI8eKkAhSIgauwIA);strokeColor=#000000;points=[];labelBackgroundColor=none;rounded=0;html=1;whiteSpace=wrap;" vertex="1" parent="xXlyJc3UYYcCv6MWLJ6c-58">
          <mxGeometry x="6" y="2" width="12" height="40" as="geometry" />
        </mxCell>
        <mxCell id="xXlyJc3UYYcCv6MWLJ6c-60" value="&lt;div style=&quot;font-size: 1px&quot;&gt;&lt;p style=&quot;align:left;margin-left:0;margin-right:0;margin-top:0px;margin-bottom:0px;text-indent:0;valign:middle;direction:ltr;&quot;&gt;&lt;font style=&quot;font-size:8.47px;font-family:Segoe UI;color:#000000;direction:ltr;letter-spacing:0px;line-height:120%;opacity:1&quot;&gt;0&lt;br/&gt;&lt;/font&gt;&lt;/p&gt;&lt;/div&gt;" style="verticalAlign=middle;align=left;vsdxID=233;fillColor=none;gradientColor=none;strokeColor=none;points=[];labelBackgroundColor=none;rounded=0;html=1;whiteSpace=wrap;" vertex="1" parent="xXlyJc3UYYcCv6MWLJ6c-58">
          <mxGeometry x="6" y="8" width="10" height="10" as="geometry" />
        </mxCell>
        <mxCell id="xXlyJc3UYYcCv6MWLJ6c-61" value="&lt;div style=&quot;font-size: 1px&quot;&gt;&lt;p style=&quot;align:left;margin-left:0;margin-right:0;margin-top:0px;margin-bottom:0px;text-indent:0;valign:middle;direction:ltr;&quot;&gt;&lt;font style=&quot;font-size:8.47px;font-family:Segoe UI;color:#000000;direction:ltr;letter-spacing:0px;line-height:120%;opacity:1&quot;&gt;1&lt;br/&gt;&lt;/font&gt;&lt;/p&gt;&lt;/div&gt;" style="verticalAlign=middle;align=left;vsdxID=234;fillColor=none;gradientColor=none;strokeColor=none;points=[];labelBackgroundColor=none;rounded=0;html=1;whiteSpace=wrap;" vertex="1" parent="xXlyJc3UYYcCv6MWLJ6c-58">
          <mxGeometry x="5" y="23" width="9" height="13" as="geometry" />
        </mxCell>
        <mxCell id="xXlyJc3UYYcCv6MWLJ6c-62" value="&lt;div style=&quot;font-size: 1px&quot;&gt;&lt;p style=&quot;align:left;margin-left:0;margin-right:0;margin-top:0px;margin-bottom:0px;text-indent:0;valign:middle;direction:ltr;&quot;&gt;&lt;font style=&quot;font-size:8.47px;font-family:Segoe UI;color:#000000;direction:ltr;letter-spacing:0px;line-height:120%;opacity:1&quot;&gt;&lt;sub&gt;19~15&lt;br/&gt;&lt;/sub&gt;&lt;/font&gt;&lt;/p&gt;&lt;/div&gt;" style="verticalAlign=middle;align=left;vsdxID=235;fillColor=none;gradientColor=none;strokeColor=none;points=[];labelBackgroundColor=none;rounded=0;html=1;whiteSpace=wrap;" vertex="1" parent="1">
          <mxGeometry x="296" y="126" width="30" height="12" as="geometry" />
        </mxCell>
        <mxCell id="xXlyJc3UYYcCv6MWLJ6c-63" style="vsdxID=116;fillColor=#ffffff;gradientColor=#ffffff;shape=stencil(nZBLDoAgDERP0z3SIyjew0SURgSD+Lu9kMZoXLhwN9O+tukAlrNpJg1SzDH4QW/URgNYgZTkjA4UkwJUgGXng+6DX1zLfmoymdXo17xh5zmRJ6Q42BWCfc2oJfdAr+Yv+AP9Cb7OJ3H/2JG1HNGz/84klThPVCc=);strokeColor=#000000;points=[];labelBackgroundColor=none;rounded=0;html=1;whiteSpace=wrap;" vertex="1" parent="1">
          <mxGeometry x="553" y="123" width="44" height="76" as="geometry" />
        </mxCell>
        <mxCell id="xXlyJc3UYYcCv6MWLJ6c-64" value="&lt;div style=&quot;font-size: 1px&quot;&gt;&lt;p style=&quot;align:left;margin-left:0;margin-right:0;margin-top:0px;margin-bottom:0px;text-indent:0;valign:middle;direction:ltr;&quot;&gt;&lt;font style=&quot;font-size:8.47px;font-family:Segoe UI;color:#000000;direction:ltr;letter-spacing:0px;line-height:120%;opacity:1&quot;&gt;WE&lt;br/&gt;&lt;/font&gt;&lt;/p&gt;&lt;/div&gt;" style="verticalAlign=middle;align=left;vsdxID=117;fillColor=none;gradientColor=none;strokeColor=none;points=[];labelBackgroundColor=none;rounded=0;html=1;whiteSpace=wrap;" vertex="1" parent="1">
          <mxGeometry x="562" y="181" width="44" height="25" as="geometry" />
        </mxCell>
        <mxCell id="xXlyJc3UYYcCv6MWLJ6c-65" value="&lt;div style=&quot;font-size: 1px&quot;&gt;&lt;p style=&quot;align:left;margin-left:0;margin-right:0;margin-top:0px;margin-bottom:0px;text-indent:0;valign:middle;direction:ltr;&quot;&gt;&lt;font style=&quot;font-size:8.47px;font-family:Segoe UI;color:#000000;direction:ltr;letter-spacing:0px;line-height:120%;opacity:1&quot;&gt;A&lt;br/&gt;&lt;/font&gt;&lt;/p&gt;&lt;/div&gt;" style="verticalAlign=middle;align=left;vsdxID=118;fillColor=none;gradientColor=none;strokeColor=none;points=[];labelBackgroundColor=none;rounded=0;html=1;whiteSpace=wrap;" vertex="1" parent="1">
          <mxGeometry x="553" y="126" width="31" height="25" as="geometry" />
        </mxCell>
        <mxCell id="xXlyJc3UYYcCv6MWLJ6c-66" value="&lt;div style=&quot;font-size: 1px&quot;&gt;&lt;p style=&quot;align:right;margin-left:0;margin-right:0;margin-top:0px;margin-bottom:0px;text-indent:0;valign:middle;direction:ltr;&quot;&gt;&lt;font style=&quot;font-size:8.47px;font-family:Segoe UI;color:#000000;direction:ltr;letter-spacing:0px;line-height:120%;opacity:1&quot;&gt;DO&lt;br/&gt;&lt;/font&gt;&lt;/p&gt;&lt;/div&gt;" style="verticalAlign=middle;align=right;vsdxID=119;fillColor=none;gradientColor=none;strokeColor=none;points=[];labelBackgroundColor=none;rounded=0;html=1;whiteSpace=wrap;" vertex="1" parent="1">
          <mxGeometry x="562" y="145" width="35" height="25" as="geometry" />
        </mxCell>
        <mxCell id="xXlyJc3UYYcCv6MWLJ6c-67" value="&lt;div style=&quot;font-size: 1px&quot;&gt;&lt;font style=&quot;font-size:9.88px;font-family:Segoe UI;color:#000000;direction:ltr;letter-spacing:0px;line-height:120%;opacity:1&quot;&gt;数据&lt;br/&gt;存储器&lt;br/&gt;&lt;/font&gt;&lt;/div&gt;" style="verticalAlign=middle;align=center;vsdxID=120;fillColor=none;gradientColor=none;strokeColor=none;points=[];labelBackgroundColor=none;rounded=0;html=1;whiteSpace=wrap;" vertex="1" parent="1">
          <mxGeometry x="547" y="161" width="57" height="25" as="geometry" />
        </mxCell>
        <mxCell id="xXlyJc3UYYcCv6MWLJ6c-68" value="&lt;div style=&quot;font-size: 1px&quot;&gt;&lt;p style=&quot;align:left;margin-left:0;margin-right:0;margin-top:0px;margin-bottom:0px;text-indent:0;valign:middle;direction:ltr;&quot;&gt;&lt;font style=&quot;font-size:8.47px;font-family:Segoe UI;color:#000000;direction:ltr;letter-spacing:0px;line-height:120%;opacity:1&quot;&gt;DI&lt;br/&gt;&lt;/font&gt;&lt;/p&gt;&lt;/div&gt;" style="verticalAlign=middle;align=left;vsdxID=121;fillColor=none;gradientColor=none;strokeColor=none;points=[];labelBackgroundColor=none;rounded=0;html=1;whiteSpace=wrap;" vertex="1" parent="1">
          <mxGeometry x="553" y="145" width="31" height="25" as="geometry" />
        </mxCell>
        <mxCell id="xXlyJc3UYYcCv6MWLJ6c-69" style="vsdxID=172;fillColor=#ffffff;gradientColor=#ffffff;shape=stencil(nZBLDoAgDERP0z3SIyjew0SURgSD+Lu9kMZoXLhwN9O+tukAlrNpJg1SzDH4QW/URgNYgZTkjA4UkwJUgGXng+6DX1zLfmoymdXo17xh5zmRJ6Q42BWCfc2oJfdAr+Yv+AP9Cb7OJ3H/2JG1HNGz/84klThPVCc=);strokeColor=#000000;points=[];labelBackgroundColor=none;rounded=0;html=1;whiteSpace=wrap;" vertex="1" parent="1">
          <mxGeometry x="319" y="85" width="61" height="85" as="geometry" />
        </mxCell>
        <mxCell id="xXlyJc3UYYcCv6MWLJ6c-70" value="&lt;div style=&quot;font-size: 1px&quot;&gt;&lt;p style=&quot;align:left;margin-left:0;margin-right:0;margin-top:0px;margin-bottom:0px;text-indent:0;valign:middle;direction:ltr;&quot;&gt;&lt;font style=&quot;font-size:8.47px;font-family:Segoe UI;color:#000000;direction:ltr;letter-spacing:0px;line-height:120%;opacity:1&quot;&gt;RA2&lt;br/&gt;&lt;/font&gt;&lt;/p&gt;&lt;/div&gt;" style="verticalAlign=middle;align=left;vsdxID=177;fillColor=none;gradientColor=none;strokeColor=none;points=[];labelBackgroundColor=none;rounded=0;html=1;whiteSpace=wrap;" vertex="1" parent="1">
          <mxGeometry x="319" y="144" width="36" height="25" as="geometry" />
        </mxCell>
        <mxCell id="xXlyJc3UYYcCv6MWLJ6c-71" value="&lt;div style=&quot;font-size: 1px&quot;&gt;&lt;p style=&quot;align:left;margin-left:0;margin-right:0;margin-top:0px;margin-bottom:0px;text-indent:0;valign:middle;direction:ltr;&quot;&gt;&lt;font style=&quot;font-size:8.47px;font-family:Segoe UI;color:#000000;direction:ltr;letter-spacing:0px;line-height:120%;opacity:1&quot;&gt;RA1&lt;br/&gt;&lt;/font&gt;&lt;/p&gt;&lt;/div&gt;" style="verticalAlign=middle;align=left;vsdxID=173;fillColor=none;gradientColor=none;strokeColor=none;points=[];labelBackgroundColor=none;rounded=0;html=1;whiteSpace=wrap;" vertex="1" parent="1">
          <mxGeometry x="319" y="124" width="30" height="25" as="geometry" />
        </mxCell>
        <mxCell id="xXlyJc3UYYcCv6MWLJ6c-72" value="&lt;div style=&quot;font-size: 1px&quot;&gt;&lt;p style=&quot;align:right;margin-left:0;margin-right:0;margin-top:0px;margin-bottom:0px;text-indent:0;valign:middle;direction:ltr;&quot;&gt;&lt;font style=&quot;font-size:8.47px;font-family:Segoe UI;color:#000000;direction:ltr;letter-spacing:0px;line-height:120%;opacity:1&quot;&gt;RD2&lt;br/&gt;&lt;/font&gt;&lt;/p&gt;&lt;/div&gt;" style="verticalAlign=middle;align=right;vsdxID=174;fillColor=none;gradientColor=none;strokeColor=none;points=[];labelBackgroundColor=none;rounded=0;html=1;whiteSpace=wrap;" vertex="1" parent="1">
          <mxGeometry x="352" y="144" width="28" height="25" as="geometry" />
        </mxCell>
        <mxCell id="xXlyJc3UYYcCv6MWLJ6c-73" value="&lt;div style=&quot;font-size: 1px&quot;&gt;&lt;p style=&quot;align:right;margin-left:0;margin-right:0;margin-top:0px;margin-bottom:0px;text-indent:0;valign:middle;direction:ltr;&quot;&gt;&lt;font style=&quot;font-size:8.47px;font-family:Segoe UI;color:#000000;direction:ltr;letter-spacing:0px;line-height:120%;opacity:1&quot;&gt;RD1&lt;br/&gt;&lt;/font&gt;&lt;/p&gt;&lt;/div&gt;" style="verticalAlign=middle;align=right;vsdxID=175;fillColor=none;gradientColor=none;strokeColor=none;points=[];labelBackgroundColor=none;rounded=0;html=1;whiteSpace=wrap;" vertex="1" parent="1">
          <mxGeometry x="352" y="84" width="28" height="25" as="geometry" />
        </mxCell>
        <mxCell id="xXlyJc3UYYcCv6MWLJ6c-74" value="&lt;div style=&quot;font-size: 1px&quot;&gt;&lt;font style=&quot;font-size:9.88px;font-family:Segoe UI;color:#000000;direction:ltr;letter-spacing:0px;line-height:120%;opacity:1&quot;&gt;寄存器堆&lt;/font&gt;&lt;font style=&quot;font-size:8.47px;font-family:Segoe UI;color:#000000;direction:ltr;letter-spacing:0px;line-height:120%;opacity:1&quot;&gt;&lt;b&gt;&lt;br/&gt;&lt;/b&gt;&lt;/font&gt;&lt;/div&gt;" style="verticalAlign=middle;align=center;vsdxID=178;fillColor=none;gradientColor=none;strokeColor=none;points=[];labelBackgroundColor=none;rounded=0;html=1;whiteSpace=wrap;" vertex="1" parent="1">
          <mxGeometry x="334" y="113" width="51" height="25" as="geometry" />
        </mxCell>
        <mxCell id="xXlyJc3UYYcCv6MWLJ6c-75" value="&lt;div style=&quot;font-size: 1px&quot;&gt;&lt;p style=&quot;align:left;margin-left:0;margin-right:0;margin-top:0px;margin-bottom:0px;text-indent:0;valign:middle;direction:ltr;&quot;&gt;&lt;font style=&quot;font-size:8.47px;font-family:Segoe UI;color:#000000;direction:ltr;letter-spacing:0px;line-height:120%;opacity:1&quot;&gt;WA&lt;br/&gt;&lt;/font&gt;&lt;/p&gt;&lt;/div&gt;" style="verticalAlign=middle;align=left;vsdxID=241;fillColor=none;gradientColor=none;strokeColor=none;points=[];labelBackgroundColor=none;rounded=0;html=1;whiteSpace=wrap;" vertex="1" parent="1">
          <mxGeometry x="319" y="105" width="31" height="25" as="geometry" />
        </mxCell>
        <mxCell id="xXlyJc3UYYcCv6MWLJ6c-76" value="&lt;div style=&quot;font-size: 1px&quot;&gt;&lt;p style=&quot;align:left;margin-left:0;margin-right:0;margin-top:0px;margin-bottom:0px;text-indent:0;valign:middle;direction:ltr;&quot;&gt;&lt;font style=&quot;font-size:8.47px;font-family:Segoe UI;color:#000000;direction:ltr;letter-spacing:0px;line-height:120%;opacity:1&quot;&gt;WD&lt;br/&gt;&lt;/font&gt;&lt;/p&gt;&lt;/div&gt;" style="verticalAlign=middle;align=left;vsdxID=242;fillColor=none;gradientColor=none;strokeColor=none;points=[];labelBackgroundColor=none;rounded=0;html=1;whiteSpace=wrap;" vertex="1" parent="1">
          <mxGeometry x="319" y="85" width="38" height="25" as="geometry" />
        </mxCell>
        <mxCell id="xXlyJc3UYYcCv6MWLJ6c-77" value="&lt;div style=&quot;font-size: 1px&quot;&gt;&lt;font style=&quot;font-size:8.47px;font-family:Segoe UI;color:#000000;direction:ltr;letter-spacing:0px;line-height:120%;opacity:1&quot;&gt;WE&lt;br/&gt;&lt;/font&gt;&lt;/div&gt;" style="verticalAlign=middle;align=center;vsdxID=248;fillColor=none;gradientColor=none;strokeColor=none;points=[];labelBackgroundColor=none;rounded=0;html=1;whiteSpace=wrap;" vertex="1" parent="1">
          <mxGeometry x="323" y="156" width="58" height="17" as="geometry" />
        </mxCell>
        <mxCell id="xXlyJc3UYYcCv6MWLJ6c-78" style="vsdxID=167;fillColor=#ffffff;gradientColor=#ffffff;shape=stencil(nZBLDoAgDERP0z3SIyjew0SURgSD+Lu9kMZoXLhwN9O+tukAlrNpJg1SzDH4QW/URgNYgZTkjA4UkwJUgGXng+6DX1zLfmoymdXo17xh5zmRJ6Q42BWCfc2oJfdAr+Yv+AP9Cb7OJ3H/2JG1HNGz/84klThPVCc=);strokeColor=#000000;points=[];labelBackgroundColor=none;rounded=0;html=1;whiteSpace=wrap;" vertex="1" parent="1">
          <mxGeometry x="205" y="93" width="50" height="76" as="geometry" />
        </mxCell>
        <mxCell id="xXlyJc3UYYcCv6MWLJ6c-79" value="&lt;div style=&quot;font-size: 1px&quot;&gt;&lt;p style=&quot;align:left;margin-left:0;margin-right:0;margin-top:0px;margin-bottom:0px;text-indent:0;valign:middle;direction:ltr;&quot;&gt;&lt;font style=&quot;font-size:8.47px;font-family:Segoe UI;color:#000000;direction:ltr;letter-spacing:0px;line-height:120%;opacity:1&quot;&gt;A&lt;br/&gt;&lt;/font&gt;&lt;/p&gt;&lt;/div&gt;" style="verticalAlign=middle;align=left;vsdxID=168;fillColor=none;gradientColor=none;strokeColor=none;points=[];labelBackgroundColor=none;rounded=0;html=1;whiteSpace=wrap;" vertex="1" parent="1">
          <mxGeometry x="205" y="107" width="31" height="25" as="geometry" />
        </mxCell>
        <mxCell id="xXlyJc3UYYcCv6MWLJ6c-80" value="&lt;div style=&quot;font-size: 1px&quot;&gt;&lt;p style=&quot;align:right;margin-left:0;margin-right:0;margin-top:0px;margin-bottom:0px;text-indent:0;valign:middle;direction:ltr;&quot;&gt;&lt;font style=&quot;font-size:8.47px;font-family:Segoe UI;color:#000000;direction:ltr;letter-spacing:0px;line-height:120%;opacity:1&quot;&gt;DO&lt;br/&gt;&lt;/font&gt;&lt;/p&gt;&lt;/div&gt;" style="verticalAlign=middle;align=right;vsdxID=169;fillColor=none;gradientColor=none;strokeColor=none;points=[];labelBackgroundColor=none;rounded=0;html=1;whiteSpace=wrap;" vertex="1" parent="1">
          <mxGeometry x="220" y="107" width="36" height="25" as="geometry" />
        </mxCell>
        <mxCell id="xXlyJc3UYYcCv6MWLJ6c-81" value="&lt;div style=&quot;font-size: 1px&quot;&gt;&lt;font style=&quot;font-size:9.88px;font-family:Segoe UI;color:#000000;direction:ltr;letter-spacing:0px;line-height:120%;opacity:1&quot;&gt;指令&lt;br/&gt;存储器&lt;br/&gt;&lt;/font&gt;&lt;/div&gt;" style="verticalAlign=middle;align=center;vsdxID=170;fillColor=none;gradientColor=none;strokeColor=none;points=[];labelBackgroundColor=none;rounded=0;html=1;whiteSpace=wrap;" vertex="1" parent="1">
          <mxGeometry x="199" y="133" width="63" height="25" as="geometry" />
        </mxCell>
        <mxCell id="xXlyJc3UYYcCv6MWLJ6c-82" style="vsdxID=294;edgeStyle=none;startArrow=none;endFill=0;endArrow=block;startSize=5;endSize=5;spacingTop=0;spacingBottom=0;spacingLeft=0;spacingRight=0;verticalAlign=middle;html=1;labelBackgroundColor=#ffffff;rounded=0;" edge="1" parent="1">
          <mxGeometry relative="1" as="geometry">
            <Array as="points" />
            <mxPoint x="520" y="127" as="sourcePoint" />
            <mxPoint x="520" y="268" as="targetPoint" />
          </mxGeometry>
        </mxCell>
        <mxCell id="xXlyJc3UYYcCv6MWLJ6c-83" value="&lt;div style=&quot;font-size: 1px&quot;&gt;&lt;/div&gt;" style="verticalAlign=middle;align=center;vsdxID=303;fillColor=#ffffff;gradientColor=#ffffff;shape=stencil(UzV2Ls5ILEhVNTIoLinKz04tz0wpyVA1dlE1MsrMy0gtyiwBslSNXVWNndPyi1LTi/JL81Ig/IJEkEoQKze/DGRCBUSfAUiHkUElhGdoAOG7QZTmZOYhKYVJkqUYj1JUhaZEq0SzH8hAeDItMycHEkbI8uiBAhSCBKixKwA=);strokeColor=#000000;points=[];labelBackgroundColor=none;rounded=0;html=1;whiteSpace=wrap;" vertex="1" parent="1">
          <mxGeometry x="309" y="182" width="35" height="25" as="geometry" />
        </mxCell>
        <mxCell id="xXlyJc3UYYcCv6MWLJ6c-84" value="&lt;div style=&quot;font-size: 1px&quot;&gt;&lt;font style=&quot;font-size:9.88px;font-family:Segoe UI;color:#000000;direction:ltr;letter-spacing:0px;line-height:120%;opacity:1&quot;&gt;立即数&lt;br/&gt;&lt;/font&gt;&lt;/div&gt;" style="verticalAlign=middle;align=center;vsdxID=196;fillColor=none;gradientColor=none;strokeColor=none;flipH=1;points=[];labelBackgroundColor=none;rounded=0;html=1;whiteSpace=wrap;" vertex="1" parent="1">
          <mxGeometry x="307" y="193" width="40" height="13" as="geometry" />
        </mxCell>
        <mxCell id="xXlyJc3UYYcCv6MWLJ6c-85" value="&lt;div style=&quot;font-size: 1px&quot;&gt;&lt;font style=&quot;font-size:9.88px;font-family:Segoe UI;color:#000000;direction:ltr;letter-spacing:0px;line-height:120%;opacity:1&quot;&gt;控制器&lt;br/&gt;&lt;/font&gt;&lt;/div&gt;" style="verticalAlign=bottom;align=center;vsdxID=304;fillColor=#FFFFFF;gradientColor=none;shape=stencil(vZPdcoMgEIWfhksZfowh12n6HkyCypSKs9LGvn2wYBM0NFfJ3bJ72OVbPYjvh1b2CjEyOLAf6qxPrkX8DTGmu1aBdj5C/ID4vragGrBf3Smcezkpp+jTfk8dxnBvJ7CopluM/IQMJeT3/B7kEo6+BlFOMYlqmOUbvNmG1Jg2mBsKjlkZFYUc9VCAddJp24V6VBsJjSr8uKI2sklKw1mpfpWODzS6U/nhtMLb6l8euuAp8S7BWW+IvAwG0/LO5AzJrIUruqAJSm41L0DJ/RIZFsYXLALTKmFZ7ebvyz8f5qFpfHA1XK2NCX69rS8N6lPB3PxwAQ==);strokeColor=#000000;flipV=1;points=[[0.5,0,0],[0.5,0,0],[0.5,0.5,0],[1,0.5,0],[0.5,0.5,0]];labelBackgroundColor=none;rounded=0;html=1;whiteSpace=wrap;" vertex="1" parent="1">
          <mxGeometry x="56" y="268" width="614" height="41" as="geometry" />
        </mxCell>
        <mxCell id="xXlyJc3UYYcCv6MWLJ6c-86" value="" style="group" vertex="1" connectable="0" parent="1">
          <mxGeometry x="150" y="97" width="23" height="46" as="geometry" />
        </mxCell>
        <mxCell id="xXlyJc3UYYcCv6MWLJ6c-87" value="&lt;div style=&quot;font-size: 1px&quot;&gt;&lt;/div&gt;" style="verticalAlign=middle;align=center;vsdxID=109;fillColor=#ffffff;gradientColor=#ffffff;shape=stencil(nZBLDoAgDERP0z3SIyjew0SURgSD+Lu9kMZoXLhwN9O+tukAlrNpJg1SzDH4QW/URgNYgZTkjA4UkwJUgGXng+6DX1zLfmoymdXo17xh5zmRJ6Q42BWCfc2oJfdAr+Yv+AP9Cb7OJ3H/2JG1HNGz/84klThPVCc=);strokeColor=#000000;points=[];labelBackgroundColor=none;rounded=0;html=1;whiteSpace=wrap;" vertex="1" parent="xXlyJc3UYYcCv6MWLJ6c-86">
          <mxGeometry x="3" width="17" height="46" as="geometry" />
        </mxCell>
        <mxCell id="xXlyJc3UYYcCv6MWLJ6c-88" value="&lt;div style=&quot;font-size: 1px&quot;&gt;&lt;font style=&quot;font-size:8.47px;font-family:Segoe UI;color:#000000;direction:ltr;letter-spacing:0px;line-height:120%;opacity:1&quot;&gt;PC&lt;br/&gt;&lt;/font&gt;&lt;/div&gt;" style="verticalAlign=middle;align=center;vsdxID=110;fillColor=none;gradientColor=none;strokeColor=none;points=[];labelBackgroundColor=none;rounded=0;html=1;whiteSpace=wrap;" vertex="1" parent="xXlyJc3UYYcCv6MWLJ6c-86">
          <mxGeometry y="7" width="23" height="34" as="geometry" />
        </mxCell>
        <mxCell id="xXlyJc3UYYcCv6MWLJ6c-89" style="vsdxID=17;fillColor=#ffffff;gradientColor=#ffffff;shape=stencil(jZHNDoMgEISfZq8El6K9W/seJmIhpWCQ/r19IRwKHgi3XfhmMtkBNu5y3gQg3b2zd/FWi5fALoCojBRO+TABm4CNq3Xi5uzTLGnf5kjG6WFf0eGTdDQqkH7z7ZpArUwGdrREOyS8nT4PNfrgTCsxSpT3BGspOOmxFDRbnxgZmiMXrmH4X3tVWqey8v9jO+EpNcumHw==);strokeColor=#000000;points=[];labelBackgroundColor=none;rounded=0;html=1;whiteSpace=wrap;" vertex="1" parent="1">
          <mxGeometry x="481" y="87" width="25" height="50" as="geometry" />
        </mxCell>
        <mxCell id="xXlyJc3UYYcCv6MWLJ6c-90" value="&lt;div style=&quot;font-size: 1px&quot;&gt;&lt;font style=&quot;font-size:8.47px;font-family:Segoe UI;color:#000000;direction:ltr;letter-spacing:0px;line-height:120%;opacity:1&quot;&gt;ALU&lt;/font&gt;&lt;/div&gt;" style="verticalAlign=middle;align=center;vsdxID=20;rotation=90;fillColor=none;gradientColor=none;strokeColor=none;points=[];labelBackgroundColor=none;rounded=0;html=1;whiteSpace=wrap;" vertex="1" parent="1">
          <mxGeometry x="473" y="101" width="42" height="22" as="geometry" />
        </mxCell>
        <mxCell id="xXlyJc3UYYcCv6MWLJ6c-91" value="" style="group" vertex="1" connectable="0" parent="1">
          <mxGeometry x="96" y="95" width="21" height="50" as="geometry" />
        </mxCell>
        <mxCell id="xXlyJc3UYYcCv6MWLJ6c-92" style="vsdxID=259;rotation=270;fillColor=#ffffff;gradientColor=#ffffff;shape=stencil(UzV2Ls5ILEhVNTIoLinKz04tz0wpyVA1dlE1MsrMy0gtyiwBslSNXVWNndPyi1LTi/JL81Ig/IJEkEoQKze/DGRCBUSfAUiHkUElMs8NojAnMw9JoaGRnimKWkMDPKotzElRDZPE6gwgA+F4iL+R5dA9ChSCBJKxKwA=);strokeColor=#000000;points=[];labelBackgroundColor=none;rounded=0;html=1;whiteSpace=wrap;strokeWidth=1;" vertex="1" parent="xXlyJc3UYYcCv6MWLJ6c-91">
          <mxGeometry x="-14.5" y="14.5" width="50" height="21" as="geometry" />
        </mxCell>
        <mxCell id="xXlyJc3UYYcCv6MWLJ6c-93" style="vsdxID=260;rotation=270;fillColor=#ffffff;gradientColor=#ffffff;shape=stencil(UzV2Ls5ILEhVNTIoLinKz04tz0wpyVA1dlE1MsrMy0gtyiwBslSNXVWNndPyi1LTi/JL81Ig/IJEkEoQKze/DGRCBUSfoYEBSI+RQSWED+G5QZTmZOYhKTU10zMyJVoxqrEwa7CqNTHWMyfaYDzOBTIQ3oSEELIcepAAhSDBaewKAA==);strokeColor=#000000;points=[];labelBackgroundColor=none;rounded=0;html=1;whiteSpace=wrap;" vertex="1" parent="xXlyJc3UYYcCv6MWLJ6c-91">
          <mxGeometry x="-23.5" y="23.5" width="50" height="3" as="geometry" />
        </mxCell>
        <mxCell id="xXlyJc3UYYcCv6MWLJ6c-94" value="&lt;div style=&quot;font-size: 1px&quot;&gt;&lt;font style=&quot;font-size:11.29px;font-family:Segoe UI;color:#000000;direction:ltr;letter-spacing:0px;line-height:120%;opacity:1&quot;&gt;+&lt;br/&gt;&lt;/font&gt;&lt;/div&gt;" style="verticalAlign=middle;align=center;vsdxID=261;rotation=270;fillColor=none;gradientColor=none;strokeColor=none;points=[];labelBackgroundColor=none;rounded=0;html=1;whiteSpace=wrap;" vertex="1" parent="xXlyJc3UYYcCv6MWLJ6c-91">
          <mxGeometry x="-6.5" y="16.5" width="38" height="17" as="geometry" />
        </mxCell>
      </root>
    </mxGraphModel>
  </diagram>
</mxfile>
